<?xml version="1.0" encoding="UTF-8" standalone="no"?>
<svg
   width="48"
   height="48"
   viewBox="0 0 48 48"
   fill="none"
   stroke="currentColor"
   stroke-width="2"
   stroke-linecap="round"
   stroke-linejoin="round"
   class="lucide lucide-x-icon lucide-x"
   version="1.1"
   id="svg2"
   sodipodi:docname="close.svg"
   inkscape:version="1.4.3 (0d15f75, 2025-12-25)"
   xmlns:inkscape="http://www.inkscape.org/namespaces/inkscape"
   xmlns:sodipodi="http://sodipodi.sourceforge.net/DTD/sodipodi-0.dtd"
   xmlns="http://www.w3.org/2000/svg"
   xmlns:svg="http://www.w3.org/2000/svg">
  <sodipodi:namedview
     id="namedview1"
     pagecolor="#ffffff"
     bordercolor="#000000"
     borderopacity="0.25"
     inkscape:showpageshadow="2"
     inkscape:pageopacity="0.0"
     inkscape:pagecheckerboard="0"
     inkscape:deskcolor="#d1d1d1"
     inkscape:zoom="8.40625"
     inkscape:cx="28.550186"
     inkscape:cy="26.825279"
     inkscape:window-width="1920"
     inkscape:window-height="1009"
     inkscape:window-x="1912"
     inkscape:window-y="-8"
     inkscape:window-maximized="1"
     inkscape:current-layer="svg2" />
  <defs
     id="defs2" />
  <path
     style="baseline-shift:baseline;display:inline;overflow:visible;opacity:1;vector-effect:none;fill:#000000;stroke:none;stroke-width:4;stroke-linecap:butt;stroke-linejoin:miter;enable-background:accumulate;stop-color:#000000;stop-opacity:1"
     d="M 34.585938,10.585937 10.585937,34.585938 a 2,2 0 0 0 0,2.828124 2,2 0 0 0 2.828125,0 l 24,-24 a 2,2 0 0 0 0,-2.828125 2,2 0 0 0 -2.828124,0 z"
     id="path1" />
  <path
     style="baseline-shift:baseline;display:inline;overflow:visible;opacity:1;vector-effect:none;fill:#000000;stroke:none;stroke-width:4;stroke-linecap:butt;stroke-linejoin:miter;enable-background:accumulate;stop-color:#000000;stop-opacity:1"
     d="m 12,10 a 2,2 0 0 0 -1.414063,0.585937 2,2 0 0 0 0,2.828125 l 24.000001,24 a 2,2 0 0 0 2.828124,0 2,2 0 0 0 0,-2.828124 l -24,-24.000001 A 2,2 0 0 0 12,10 Z"
     id="path2" />
</svg>
